<svg width="33" height="15" viewBox="0 0 33 15" fill="none" xmlns="http://www.w3.org/2000/svg">
<g clip-path="url(#clip0_309_2438)">
<path d="M3.93044 6.90727C2.60423 6.61038 2.01341 6.49421 2.01341 5.96681C2.01341 5.47076 2.41324 5.22366 3.21289 5.22366C3.91616 5.22366 4.43023 5.54083 4.80863 6.16228C4.83719 6.21022 4.89609 6.22682 4.94429 6.201L6.4365 5.42282C6.49005 5.39515 6.50968 5.32508 6.47934 5.2716C5.85996 4.16333 4.71582 3.55664 3.20932 3.55664C1.22982 3.55664 0 4.56349 0 6.16412C0 7.86433 1.49757 8.294 2.82556 8.59089C4.15356 8.88778 4.74616 9.00395 4.74616 9.53135C4.74616 10.0587 4.3142 10.3077 3.45208 10.3077C2.65599 10.3077 2.06518 9.93151 1.70819 9.20127C1.68141 9.14779 1.61894 9.12566 1.56718 9.15332L0.0785374 9.91491C0.0267741 9.94257 0.00535482 10.0071 0.0321289 10.0624C0.622945 11.2887 1.83492 11.9784 3.45386 11.9784C5.51547 11.9784 6.76136 10.9881 6.76136 9.33773C6.76136 7.6873 5.25665 7.20785 3.93044 6.91096V6.90727Z" fill="white"/>
<path d="M11.9269 3.55664C11.0809 3.55664 10.333 3.86644 9.7957 4.41781C9.76179 4.451 9.70646 4.42703 9.70646 4.37908V0.858799C9.70646 0.797945 9.66005 0.75 9.60114 0.75H7.7341C7.67519 0.75 7.62878 0.797945 7.62878 0.858799V11.7848C7.62878 11.8456 7.67519 11.8936 7.7341 11.8936H9.60114C9.66005 11.8936 9.70646 11.8456 9.70646 11.7848V6.9921C9.70646 6.06639 10.3937 5.35643 11.32 5.35643C12.2464 5.35643 12.9176 6.05163 12.9176 6.9921V11.7848C12.9176 11.8456 12.964 11.8936 13.0229 11.8936H14.8899C14.9488 11.8936 14.9952 11.8456 14.9952 11.7848V6.9921C14.9952 4.9784 13.7172 3.55664 11.9269 3.55664Z" fill="white"/>
<path d="M18.7829 3.24316C17.7691 3.24316 16.8195 3.56403 16.1377 4.02688C16.0912 4.05823 16.0752 4.12277 16.1037 4.17256L16.9266 5.62383C16.9569 5.67546 17.0212 5.6939 17.0712 5.66255C17.5888 5.33984 18.1814 5.17204 18.7865 5.17572C20.4162 5.17572 21.6139 6.36329 21.6139 7.93257C21.6139 9.26951 20.6553 10.2598 19.4398 10.2598C18.4492 10.2598 17.762 9.66413 17.762 8.82325C17.762 8.34195 17.9601 7.94733 18.4759 7.66888C18.5295 7.63937 18.5491 7.57114 18.517 7.51766L17.7405 6.16045C17.7155 6.11619 17.662 6.0959 17.6138 6.11434C16.5732 6.51266 15.8431 7.47156 15.8431 8.75871C15.8431 10.706 17.3443 12.1591 19.438 12.1591C21.8834 12.1591 23.6415 10.4091 23.6415 7.89938C23.6415 5.20892 21.596 3.24316 18.7829 3.24316Z" fill="white"/>
<path d="M29.1035 3.54004C28.1593 3.54004 27.315 3.90147 26.6992 4.53582C26.6653 4.57086 26.6099 4.54504 26.6099 4.4971V3.73366C26.6099 3.67281 26.5635 3.62487 26.5046 3.62487H24.6858C24.6269 3.62487 24.5804 3.67281 24.5804 3.73366V14.643C24.5804 14.7039 24.6269 14.7518 24.6858 14.7518H26.5528C26.6117 14.7518 26.6581 14.7039 26.6581 14.643V11.0656C26.6581 11.0176 26.7134 10.9937 26.7474 11.025C27.3614 11.6151 28.1735 11.96 29.1035 11.96C31.2936 11.96 33.0018 10.1288 33.0018 7.75C33.0018 5.37118 31.2918 3.54004 29.1035 3.54004ZM28.7501 10.1122C27.5042 10.1122 26.5599 9.08877 26.5599 7.73524C26.5599 6.38171 27.5024 5.35827 28.7501 5.35827C29.9977 5.35827 30.9384 6.36512 30.9384 7.73524C30.9384 9.10537 30.0102 10.1122 28.7483 10.1122H28.7501Z" fill="white"/>
</g>
<defs>
<clipPath id="clip0_309_2438">
<rect width="33" height="14" fill="white" transform="translate(0 0.75)"/>
</clipPath>
</defs>
</svg>
