<svg width="14" height="15" viewBox="0 0 14 15" fill="none" xmlns="http://www.w3.org/2000/svg">
<path d="M4.95071 0.000119619C3.24349 7.8366e-05 1.64446 0.514368 0.496272 1.25627C0.418123 1.30652 0.391069 1.40998 0.439158 1.48979L1.82472 3.81612C1.87581 3.89889 1.98401 3.92845 2.06817 3.8782C2.93983 3.36094 3.93772 3.09198 4.95664 3.09791C7.70082 3.09798 9.71758 5.00163 9.71752 7.51711C9.71746 9.66015 8.10338 11.2474 6.05652 11.2474C4.38837 11.2473 3.23121 10.2926 3.23125 8.94466C3.23126 8.17317 3.56491 7.54061 4.43356 7.09429C4.52373 7.047 4.55679 6.93763 4.50269 6.85191L3.19528 4.67633C3.1532 4.60538 3.06303 4.57287 2.98188 4.60242C1.22956 5.24086 0.000202431 6.7779 0.000152576 8.84112C7.71503e-05 11.9626 2.52779 14.2919 6.05344 14.292C10.1712 14.2921 13.1319 11.487 13.132 7.46399C13.1321 3.15132 9.68764 0.000234081 4.95071 0.000119619Z" fill="white"/>
</svg>
