<svg width="159" height="48" viewBox="0 0 159 48" fill="none" xmlns="http://www.w3.org/2000/svg">
<path d="M0 8C0 3.58172 3.58172 0 8 0H150.333C154.752 0 158.333 3.58172 158.333 8V40C158.333 44.4183 154.752 48 150.333 48H7.99999C3.58171 48 0 44.4183 0 40V8Z" fill="black"/>
<g clip-path="url(#clip0_698_570)">
<path fill-rule="evenodd" clip-rule="evenodd" d="M78.0214 17.1V21.9035H80.9837C81.6896 21.9035 82.2731 21.6659 82.7343 21.1918C83.2084 20.7188 83.4461 20.1541 83.4461 19.5012C83.4461 18.8612 83.2084 18.3035 82.7343 17.8282C82.2731 17.3424 81.6896 17.0988 80.9837 17.0988H78.0214V17.1ZM78.0214 23.5941V29.1659H76.252V15.4094H80.9461C82.1378 15.4094 83.1496 15.8059 83.9837 16.6C84.8308 17.3941 85.2543 18.3612 85.2543 19.5012C85.2543 20.6671 84.8308 21.6412 83.9837 22.4212C83.1637 23.2035 82.1496 23.593 80.9449 23.593H78.0214V23.5941ZM87.0425 26.2847C87.0425 26.7459 87.2378 27.1294 87.6296 27.4377C88.0202 27.7435 88.479 27.8977 89.0037 27.8977C89.7484 27.8977 90.4108 27.6224 90.9943 27.073C91.579 26.5212 91.8696 25.8741 91.8696 25.1318C91.3178 24.6965 90.5484 24.4788 89.5614 24.4788C88.8437 24.4788 88.2437 24.653 87.7637 24.9988C87.2825 25.3447 87.0425 25.7718 87.0425 26.2847ZM89.332 19.4435C90.6402 19.4435 91.672 19.793 92.4296 20.4906C93.1849 21.1894 93.5637 22.1471 93.5637 23.3635V29.1659H91.8708V27.86H91.7943C91.0625 28.9353 90.0884 29.4741 88.8696 29.4741C87.832 29.4741 86.9625 29.1659 86.2637 28.5518C85.5649 27.9365 85.2155 27.1682 85.2155 26.2459C85.2155 25.2718 85.5837 24.4977 86.3214 23.9212C87.059 23.3447 88.0425 23.0565 89.2743 23.0565C90.3237 23.0565 91.1908 23.2482 91.8696 23.633V23.2282C91.8696 22.6141 91.6261 22.0918 91.139 21.6635C90.6697 21.2413 90.0585 21.0115 89.4272 21.02C88.439 21.02 87.6578 21.4353 87.0802 22.2694L85.5225 21.2882C86.3814 20.0588 87.652 19.4435 89.332 19.4435ZM103.277 19.7518L97.3708 33.3165H95.5437L97.7367 28.5706L93.852 19.7518H95.7755L98.5837 26.5153H98.6214L101.353 19.7506L103.277 19.7518Z" fill="white"/>
<path fill-rule="evenodd" clip-rule="evenodd" d="M70.8695 22.3927C70.8695 21.8362 70.8225 21.2986 70.7331 20.7856H63.2695V23.8303H67.5448C67.4572 24.3168 67.2719 24.7805 67.0002 25.1934C66.7284 25.6063 66.3758 25.9598 65.9636 26.2327V28.2092H68.5154C70.0095 26.8327 70.8695 24.7974 70.8695 22.3927Z" fill="#4285F4"/>
<path fill-rule="evenodd" clip-rule="evenodd" d="M63.2698 30.1176C65.4063 30.1176 67.2039 29.4176 68.5157 28.2105L65.9639 26.2329C65.2545 26.7105 64.3404 26.9894 63.2698 26.9894C61.2063 26.9894 59.4533 25.5988 58.8275 23.7258H56.1992V25.7623C56.8585 27.0722 57.8688 28.1731 59.1173 28.9423C60.3657 29.7116 61.8034 30.1189 63.2698 30.1188" fill="#34A853"/>
<path fill-rule="evenodd" clip-rule="evenodd" d="M58.8272 23.7257C58.4971 22.7441 58.4971 21.6814 58.8272 20.6998V18.6633H56.199C55.6434 19.7635 55.3544 20.979 55.3555 22.2116C55.3555 23.488 55.6614 24.6939 56.199 25.761L58.8272 23.7245V23.7257Z" fill="#FABB05"/>
<path fill-rule="evenodd" clip-rule="evenodd" d="M63.2686 17.4363C64.4357 17.4363 65.4804 17.8363 66.3039 18.6222V18.6234L68.5627 16.3669C67.1933 15.0916 65.4051 14.3081 63.2698 14.3081C61.8035 14.3079 60.366 14.715 59.1175 15.484C57.869 16.2531 56.8587 17.3538 56.1992 18.6634L58.8275 20.6999C59.4533 18.8269 61.2063 17.4363 63.2698 17.4363" fill="#F6EDDD"/>
</g>
<defs>
<clipPath id="clip0_698_570">
<rect width="48.2353" height="20" fill="white" transform="translate(55.0488 14)"/>
</clipPath>
</defs>
</svg>
