<svg width="159" height="48" viewBox="0 0 159 48" fill="none" xmlns="http://www.w3.org/2000/svg">
<path d="M0 8C0 3.58172 3.58172 0 8 0H150.333C154.752 0 158.333 3.58172 158.333 8V40C158.333 44.4183 154.752 48 150.333 48H7.99999C3.58171 48 0 44.4183 0 40V8Z" fill="#FFC439"/>
<g clip-path="url(#clip0_698_585)">
<path d="M69.3092 18.4727C70.7571 18.4727 71.8476 18.8731 72.4625 19.6299C73.0223 20.3191 73.2078 21.3031 73.0142 22.5557C72.5847 25.4186 70.9402 26.8632 68.0904 26.8633H66.7203C66.4251 26.8634 66.1731 27.0889 66.1275 27.3955L65.6549 30.5303C65.6087 30.8371 65.3572 31.0625 65.0611 31.0625H62.9957C62.7739 31.0624 62.6047 30.856 62.6392 30.627L64.3892 19.0039C64.4356 18.6979 64.687 18.4727 64.983 18.4727H69.3092ZM67.398 20.9883C67.2209 20.9883 67.0688 21.1231 67.0416 21.3066L66.5836 24.3438H67.2369C68.3837 24.3437 69.5696 24.3437 69.8062 22.7178C69.8929 22.1465 69.8234 21.7324 69.5963 21.4541C69.2154 20.9877 68.4781 20.9883 67.6969 20.9883H67.398Z" fill="#253B80"/>
<path d="M77.1293 22.4612C78.1275 22.4612 79.128 22.6894 79.5765 23.3713L79.7211 23.5911L79.8129 22.9836C79.8403 22.8003 79.993 22.6653 80.1693 22.6653H82.2406C82.462 22.6653 82.6315 22.8732 82.5961 23.1018L81.476 30.5295C81.4292 30.8363 81.1788 31.0616 80.8822 31.0618H79.016C78.7952 31.0618 78.6257 30.8549 78.6605 30.6243L78.7523 30.0217C78.7386 30.0383 77.7172 31.2638 75.8851 31.2639C74.8105 31.2639 73.9071 30.9395 73.2758 30.1604C72.5875 29.3128 72.3053 28.0966 72.5033 26.8254C72.8843 24.2775 74.84 22.4612 77.1293 22.4612ZM77.6215 24.7629C76.4417 24.7629 75.4858 25.6224 75.2992 26.8518C75.2019 27.4547 75.3184 27.9959 75.6244 28.3762C75.9331 28.7593 76.4144 28.9622 77.016 28.9622C78.214 28.962 79.153 28.1287 79.3529 26.8889C79.4432 26.2887 79.3179 25.744 79.0023 25.3538C78.6874 24.9676 78.2095 24.7631 77.6215 24.7629Z" fill="#253B80"/>
<path d="M93.2757 22.665H91.1938C90.9952 22.665 90.8086 22.7684 90.696 22.9414L87.8246 27.3724L86.6074 23.1144C86.5309 22.848 86.2962 22.665 86.0305 22.665H83.9847C83.736 22.665 83.5633 22.9195 83.6424 23.1647L85.9356 30.2149L83.7797 33.4033C83.6102 33.6544 83.781 33.9997 84.0739 33.9997H86.1532C86.3506 33.9997 86.5353 33.899 86.6473 33.7293L93.5718 23.2582C93.7375 23.0077 93.5674 22.665 93.2757 22.665Z" fill="#253B80"/>
<path d="M100.169 18.4727C101.617 18.4727 102.707 18.873 103.321 19.6299C103.881 20.3191 104.068 21.3032 103.874 22.5557C103.443 25.4185 101.799 26.8631 98.9488 26.8633H97.5797C97.2843 26.8633 97.0315 27.0887 96.9859 27.3955L96.4898 30.6904C96.4575 30.9049 96.2808 31.0623 96.0748 31.0625H93.8541C93.6335 31.0625 93.4641 30.8561 93.4986 30.627L95.2486 19.0039C95.2949 18.698 95.5462 18.4728 95.8414 18.4727H100.169ZM98.2603 20.9883C98.0826 20.9883 97.9321 21.1231 97.9049 21.3066L97.4459 24.3438H98.0982C99.2457 24.3438 100.432 24.3439 100.668 22.7178C100.754 22.1465 100.686 21.7324 100.459 21.4541C100.078 20.9877 99.3397 20.9883 98.5592 20.9883H98.2603Z" fill="#179BD7"/>
<path fill-rule="evenodd" clip-rule="evenodd" d="M107.989 22.4612C108.988 22.4612 109.987 22.6894 110.436 23.3713L110.581 23.5911L110.673 22.9836C110.7 22.8004 110.851 22.6654 111.029 22.6653H113.099C113.321 22.6653 113.49 22.8732 113.456 23.1018L112.336 30.5295C112.29 30.8362 112.039 31.0616 111.743 31.0618H109.877C109.655 31.0616 109.486 30.8548 109.521 30.6243L109.613 30.0217C109.594 30.044 108.573 31.2639 106.745 31.2639C105.671 31.2639 104.769 30.9396 104.136 30.1604C103.448 29.3128 103.167 28.0966 103.364 26.8254C103.745 24.2776 105.7 22.4613 107.989 22.4612ZM108.482 24.7629C107.302 24.7631 106.348 25.6225 106.16 26.8518C106.064 27.4548 106.18 27.9959 106.486 28.3762C106.794 28.7592 107.276 28.9621 107.876 28.9622C109.074 28.9622 110.015 28.1289 110.214 26.8889C110.306 26.2887 110.18 25.744 109.864 25.3538C109.548 24.9674 109.07 24.7629 108.482 24.7629Z" fill="#179BD7"/>
<path d="M115.544 18.7914L113.768 30.6264C113.733 30.8557 113.903 31.0625 114.124 31.0625H115.909C116.206 31.0625 116.457 30.8371 116.503 30.5303L118.254 18.9087C118.289 18.6794 118.119 18.4719 117.899 18.4719H115.899C115.723 18.4726 115.571 18.6078 115.544 18.7914Z" fill="#179BD7"/>
<path d="M44.6734 33.3213L45.0042 31.1197L44.2672 31.1018H40.748L43.1937 14.8563C43.2013 14.8073 43.226 14.7616 43.262 14.7291C43.2981 14.6966 43.3443 14.6787 43.3923 14.6787H49.3262C51.2961 14.6787 52.6556 15.1082 53.3654 15.9558C53.6981 16.3534 53.9101 16.769 54.0125 17.2262C54.1201 17.7061 54.122 18.2793 54.017 18.9785L54.0094 19.0295V19.4775L54.3421 19.675C54.6224 19.8308 54.845 20.0091 55.0158 20.2132C55.3005 20.5532 55.4846 20.9853 55.5624 21.4975C55.6428 22.0244 55.6162 22.6514 55.4846 23.3611C55.3328 24.1776 55.0873 24.8887 54.7558 25.4706C54.4509 26.0068 54.0625 26.4515 53.6013 26.7961C53.161 27.1235 52.6379 27.372 52.0464 27.531C51.4733 27.6874 50.8198 27.7663 50.103 27.7663H49.6412C49.311 27.7663 48.9903 27.8909 48.7385 28.1142C48.4861 28.3422 48.3191 28.6537 48.2678 28.9943L48.233 29.1925L47.6485 33.0728L47.6219 33.2153C47.615 33.2603 47.603 33.2829 47.5853 33.2981C47.5694 33.312 47.5467 33.3213 47.5245 33.3213H44.6734Z" fill="#253B80"/>
<path d="M54.6558 19.0811C54.6381 19.1997 54.6178 19.321 54.595 19.4456C53.8125 23.6546 51.1353 25.1086 47.7161 25.1086H45.9751C45.557 25.1086 45.2046 25.4267 45.1395 25.8588L44.2481 31.781L43.9957 33.4597C43.9533 33.7433 44.1621 33.9991 44.4354 33.9991H47.5231C47.8888 33.9991 48.1994 33.7208 48.257 33.343L48.2873 33.1787L48.8687 29.3136L48.906 29.1015C48.9629 28.7225 49.2742 28.4441 49.6398 28.4441H50.1016C53.0932 28.4441 55.4351 27.1717 56.1196 23.4895C56.4056 21.9513 56.2575 20.667 55.5009 19.7637C55.2719 19.4913 54.9879 19.2653 54.6558 19.0811Z" fill="#179BD7"/>
<path d="M53.8364 18.7388C53.7168 18.7024 53.5935 18.6692 53.4669 18.6394C53.3398 18.6103 53.2095 18.5844 53.0754 18.5619C52.606 18.4824 52.0916 18.4446 51.5406 18.4446H46.8897C46.7752 18.4446 46.6664 18.4718 46.569 18.5208C46.3545 18.6288 46.1951 18.8416 46.1565 19.102L45.1671 25.667L45.1387 25.8585C45.2038 25.4264 45.5562 25.1083 45.9743 25.1083H47.7153C51.1345 25.1083 53.8117 23.6536 54.5942 19.4453C54.6176 19.3207 54.6373 19.1994 54.655 19.0808C54.457 18.9708 54.2425 18.8767 54.0116 18.7965C53.9547 18.7766 53.8958 18.7574 53.8364 18.7388Z" fill="#222D65"/>
<path d="M46.158 19.1024C46.1966 18.8419 46.356 18.6292 46.5705 18.5218C46.6686 18.4728 46.7767 18.4456 46.8912 18.4456H51.5422C52.0932 18.4456 52.6075 18.4834 53.0769 18.5629C53.211 18.5854 53.3413 18.6113 53.4684 18.6404C53.595 18.6703 53.7183 18.7034 53.8379 18.7398C53.8973 18.7584 53.9562 18.7776 54.0137 18.7968C54.2446 18.877 54.4591 18.9718 54.6571 19.0812C54.8899 17.5257 54.6552 16.4667 53.8524 15.5077C52.9674 14.452 51.3701 14 49.3261 14H43.3923C42.9748 14 42.6186 14.3181 42.5541 14.7509L40.0825 31.1634C40.0338 31.4881 40.2729 31.7811 40.5854 31.7811H44.2488L45.1686 25.6674L46.158 19.1024Z" fill="#253B80"/>
</g>
<defs>
<clipPath id="clip0_698_585">
<rect width="78.1817" height="19.9998" fill="white" transform="translate(40.0762 14)"/>
</clipPath>
</defs>
</svg>
