<svg width="159" height="48" viewBox="0 0 159 48" fill="none" xmlns="http://www.w3.org/2000/svg">
<path d="M0 8C0 3.58172 3.58172 0 8 0H150.333C154.752 0 158.333 3.58172 158.333 8V40C158.333 44.4183 154.752 48 150.333 48H7.99999C3.58171 48 0 44.4183 0 40V8Z" fill="#5433EB"/>
<g clip-path="url(#clip0_698_552)">
<path d="M60.5021 22.7961C58.5329 22.372 57.6556 22.206 57.6556 21.4526C57.6556 20.744 58.2493 20.391 59.4367 20.391C60.4809 20.391 61.2442 20.8441 61.8061 21.7319C61.8485 21.8004 61.936 21.8241 62.0075 21.7872L64.2232 20.6755C64.3028 20.636 64.3319 20.5359 64.2869 20.4595C63.3672 18.8762 61.6683 18.0095 59.4314 18.0095C56.4921 18.0095 54.666 19.4479 54.666 21.7345C54.666 24.1634 56.8897 24.7772 58.8615 25.2013C60.8334 25.6254 61.7133 25.7914 61.7133 26.5448C61.7133 27.2982 61.072 27.6539 59.7918 27.6539C58.6098 27.6539 57.7325 27.1165 57.2024 26.0733C57.1627 25.9969 57.0699 25.9653 56.993 26.0048L54.7826 27.0928C54.7058 27.1323 54.674 27.2245 54.7137 27.3035C55.591 29.0554 57.3906 30.0406 59.7945 30.0406C62.8557 30.0406 64.7056 28.626 64.7056 26.2682C64.7056 23.9105 62.4713 23.2255 60.5021 22.8014V22.7961Z" fill="white"/>
<path d="M72.3762 18.0095C71.12 18.0095 70.0094 18.4521 69.2117 19.2397C69.1613 19.2871 69.0792 19.2529 69.0792 19.1844V14.1554C69.0792 14.0685 69.0103 14 68.9228 14H66.1505C66.0631 14 65.9941 14.0685 65.9941 14.1554V29.764C65.9941 29.8509 66.0631 29.9194 66.1505 29.9194H68.9228C69.0103 29.9194 69.0792 29.8509 69.0792 29.764V22.9173C69.0792 21.5948 70.0996 20.5806 71.4751 20.5806C72.8506 20.5806 73.8472 21.5738 73.8472 22.9173V29.764C73.8472 29.8509 73.9161 29.9194 74.0036 29.9194H76.7758C76.8633 29.9194 76.9322 29.8509 76.9322 29.764V22.9173C76.9322 20.0406 75.0345 18.0095 72.3762 18.0095Z" fill="white"/>
<path d="M82.5566 17.5615C81.0512 17.5615 79.6412 18.0199 78.6287 18.6811C78.5598 18.7259 78.536 18.8181 78.5784 18.8892L79.8002 20.9625C79.8452 21.0362 79.9406 21.0626 80.0149 21.0178C80.7835 20.5568 81.6634 20.3171 82.5619 20.3223C84.9816 20.3223 86.76 22.0188 86.76 24.2607C86.76 26.1706 85.3368 27.5852 83.5319 27.5852C82.0609 27.5852 81.0406 26.7343 81.0406 25.5331C81.0406 24.8455 81.3347 24.2818 82.1007 23.884C82.1802 23.8418 82.2094 23.7443 82.1617 23.668L81.0087 21.7291C80.9716 21.6658 80.8921 21.6369 80.8206 21.6632C79.2754 22.2322 78.1914 23.6021 78.1914 25.4409C78.1914 28.2227 80.4204 30.2986 83.5292 30.2986C87.1603 30.2986 89.7709 27.7986 89.7709 24.2133C89.7709 20.3697 86.7335 17.5615 82.5566 17.5615Z" fill="white"/>
<path d="M97.8801 17.9858C96.478 17.9858 95.2244 18.5022 94.31 19.4084C94.2597 19.4584 94.1775 19.4216 94.1775 19.3531V18.2624C94.1775 18.1755 94.1086 18.107 94.0212 18.107H91.3204C91.233 18.107 91.1641 18.1755 91.1641 18.2624V33.8473C91.1641 33.9342 91.233 34.0027 91.3204 34.0027H94.0927C94.1802 34.0027 94.2491 33.9342 94.2491 33.8473V28.7366C94.2491 28.6681 94.3313 28.6339 94.3816 28.6787C95.2933 29.5217 96.4993 30.0143 97.8801 30.0143C101.132 30.0143 103.668 27.3984 103.668 24.0001C103.668 20.6018 101.129 17.9858 97.8801 17.9858ZM97.3553 27.3747C95.5054 27.3747 94.1033 25.9126 94.1033 23.979C94.1033 22.0454 95.5027 20.5833 97.3553 20.5833C99.2079 20.5833 100.605 22.0217 100.605 23.979C100.605 25.9363 99.2265 27.3747 97.3527 27.3747H97.3553Z" fill="white"/>
</g>
<defs>
<clipPath id="clip0_698_552">
<rect width="49" height="20" fill="white" transform="translate(54.666 14)"/>
</clipPath>
</defs>
</svg>
