<svg width="491" height="71" viewBox="0 0 491 71" fill="none" xmlns="http://www.w3.org/2000/svg">
<path d="M257.595 0C275.834 0.000145013 283.435 11.3046 285.05 20.5195L272.89 22.6094C271.845 16.6244 267.759 9.68945 257.404 9.68945C245.054 9.6895 238.024 19.9499 238.024 35.3398C238.025 50.1595 244.484 60.7996 257.499 60.7998C271.179 60.7998 274.694 49.5891 274.694 43.4141V42.1797H256.454V32.7744H285.81V69.0645H277.069L276.024 58.71C272.889 65.9297 265.289 70.6796 255.22 70.6797C236.6 70.6797 225.484 56.2395 225.484 35.4346C225.484 14.5346 237.36 0 257.595 0Z" fill="black"/>
<path fill-rule="evenodd" clip-rule="evenodd" d="M99.5469 20.4248C113.607 20.4248 119.877 26.4096 119.877 40.1846V54.3398C119.877 60.7996 120.352 65.7395 121.302 69.0645H109.901C109.521 66.6895 109.237 63.8395 109.142 60.8945C106.862 66.6895 100.877 70.2041 93.1816 70.2041C83.4917 70.2041 77.0322 64.5995 77.0322 56.1445C77.0322 51.5845 79.0272 47.7842 82.8271 45.4092C86.2471 43.4144 90.807 42.1797 98.3115 41.1348L108.382 39.8994V38.665C108.382 31.5401 105.627 28.5 99.5469 28.5C93.9419 28.5 90.6164 31.4445 90.2363 36.8594H78.5518C79.3118 26.6945 87.292 20.4248 99.5469 20.4248ZM97.9316 48.165C91.6619 49.21 88.8117 51.4895 88.8115 55.5742C88.8115 59.5642 91.8517 62.1299 96.8867 62.1299C103.917 62.1299 108.667 57.1897 108.667 49.5898V46.5498L97.9316 48.165Z" fill="black"/>
<path fill-rule="evenodd" clip-rule="evenodd" d="M316.418 20.4248C330.098 20.425 339.692 29.3549 339.692 45.2197C339.692 61.1795 330.098 70.2039 316.418 70.2041C302.738 70.2041 293.143 61.1796 293.143 45.2197C293.143 29.3547 302.738 20.4248 316.418 20.4248ZM316.418 29.0693C309.103 29.0693 304.732 34.3897 304.732 45.2197C304.732 56.0496 309.103 61.5596 316.418 61.5596C323.733 61.5594 328.008 56.0494 328.008 45.2197C328.008 34.3899 323.733 29.0695 316.418 29.0693Z" fill="black"/>
<path fill-rule="evenodd" clip-rule="evenodd" d="M367.654 20.4248C381.334 20.4248 390.93 29.3547 390.93 45.2197C390.93 61.1796 381.334 70.2041 367.654 70.2041C353.974 70.204 344.38 61.1796 344.38 45.2197C344.38 29.3548 353.974 20.4249 367.654 20.4248ZM367.654 29.0693C360.339 29.0694 355.97 34.3898 355.97 45.2197C355.97 56.0496 360.339 61.5595 367.654 61.5596C374.969 61.5596 379.244 56.0496 379.244 45.2197C379.244 34.3897 374.969 29.0693 367.654 29.0693Z" fill="black"/>
<path fill-rule="evenodd" clip-rule="evenodd" d="M440.837 69.0645H430.102V60.5146C427.442 66.5946 422.026 70.2041 414.901 70.2041C403.406 70.2041 395.712 60.2292 395.712 45.4092C395.712 30.5893 403.882 20.4248 415.757 20.4248C422.027 20.4249 426.682 22.9897 429.437 28.3096V0.189453H440.837V69.0645ZM418.701 29.1641C411.766 29.1642 407.587 35.0549 407.587 45.2197C407.587 55.3846 411.862 61.4648 418.797 61.4648C425.447 61.4646 429.722 55.8594 429.722 46.9297V43.8896C429.722 34.5796 425.541 29.1641 418.701 29.1641Z" fill="black"/>
<path d="M470.062 20.4248C480.321 20.4248 488.017 25.0794 490.392 32.4893L482.507 36.7646C480.227 31.9196 475.951 28.6895 469.776 28.6895C464.361 28.6895 461.321 30.59 461.321 34.2949C461.321 37.5247 463.507 39.4242 468.542 39.9941L476.521 41.1348C486.306 42.3698 490.201 47.3095 490.201 55.1943C490.201 64.5043 482.982 70.204 470.632 70.2041C459.707 70.2041 451.727 65.3596 448.687 56.4297L457.142 52.6299C459.422 58.7097 464.172 61.8447 470.917 61.8447C476.617 61.8446 479.656 59.6596 479.656 56.0498C479.656 52.2498 477.662 50.6347 472.437 49.9697L465.217 49.0195C455.337 47.7845 450.776 42.5593 450.776 34.8643C450.777 26.0294 457.997 20.4248 470.062 20.4248Z" fill="black"/>
<path fill-rule="evenodd" clip-rule="evenodd" d="M26.6953 1.61426C41.0403 1.61426 50.2559 9.68977 50.2559 22.1348C50.2557 34.8646 41.1354 42.9394 26.6006 42.9395H12.2559V69.0645H0V1.61426H26.6953ZM12.2559 33.6299H24.415C32.395 33.6299 37.3359 29.3542 37.3359 22.3242C37.3358 15.3894 32.3949 11.0195 24.415 11.0195H12.2559V33.6299Z" fill="black"/>
<path d="M68.4756 69.0645H57.0762V0.189453H68.4756V69.0645Z" fill="black"/>
<path d="M142.457 69.0645H131.057V21.5645H142.457V69.0645Z" fill="black"/>
<path d="M181.34 20.3291C191.695 20.3291 197.11 26.8843 197.11 39.6143V69.0645H185.615V40.7539C185.615 33.2492 182.765 29.544 176.78 29.5439C170.13 29.5439 166.141 34.8646 166.141 43.8896V69.0645H154.74V21.5645H165.57V30.7793C168.8 23.7495 174.025 20.3292 181.34 20.3291Z" fill="black"/>
<path d="M142.837 13.6797H130.487V1.80469H142.837V13.6797Z" fill="black"/>
</svg>
